<?xml version="1.0" encoding="utf-8"?>
<!-- Generator: Adobe Illustrator 18.1.1, SVG Export Plug-In . SVG Version: 6.00 Build 0)  -->
<svg version="1.1" xmlns="http://www.w3.org/2000/svg" xmlns:xlink="http://www.w3.org/1999/xlink" x="0px" y="0px"
	 viewBox="0 0 100 100" style="enable-background:new 0 0 100 100;" xml:space="preserve">
<style type="text/css">
	.st0{fill:none;stroke:#000000;stroke-miterlimit:10;}
	.st1{fill:none;stroke:#000000;stroke-miterlimit:10;stroke-dasharray:3.9444,3.9444;}
	.st2{display:none;}
	.st3{display:inline;}
</style>
<g id="TURF">
	<g id="turf-buffer">
		<path id="polygon_x5F_main" d="M68,16.1c-8.7-1.4-15.2,9.3-18,15.8c-4.2,9.8-8.6,11.4-17.7,16c-7.8,3.9-12.9,11.8-13.4,20.4
			c-0.5,8.2,8.2,14.2,15.6,15.6c9.5,1.8,13.2,1.4,17.7-7.6c4-7.9,5.2-17,11.6-23.5c7.2-7.3,14.4-9.3,16.4-20.4
			C81.6,24.3,76.3,17.5,68,16.1z"/>
		<g id="buffer">
			<g>
				<path class="st0" d="M43.4,89.6c-0.6,0.1-1.3,0.1-2,0.1c0,0,0,0,0,0c-0.7,0-1.3,0-2-0.1"/>
				<path class="st1" d="M35.5,89.2c-0.6-0.1-1.3-0.2-1.9-0.3C23.4,86.9,13.2,78.6,13.9,68c0.7-10.5,6.8-19.9,16.1-24.6l1.9-1
					c7.7-3.9,10.3-5.2,13.5-12.5c2.5-5.7,9.4-19,21-19c0.8,0,1.6,0.1,2.4,0.2c5.5,0.9,10.2,3.8,13.2,8c2.9,4,3.9,9.1,3,14.2
					c-1.7,9.8-7,14-12.2,18.2c-1.8,1.5-3.8,3-5.6,4.9c-3.4,3.5-5.2,8.2-7,13.3c-1.1,2.9-2.2,6-3.7,8.9c-2.4,4.8-5.5,9.3-11.4,10.7"
					/>
			</g>
		</g>
	</g>
</g>
<g id="_x5F_COMMON" class="st2">
	<path id="polygon_x5F_main_1_" class="st3" d="M68,16.1c-8.7-1.4-15.2,9.3-18,15.8c-4.2,9.8-8.6,11.4-17.7,16
		c-7.8,3.9-12.9,11.8-13.4,20.4c-0.5,8.2,8.2,14.2,15.6,15.6c9.5,1.8,13.2,1.4,17.7-7.6c4-7.9,5.2-17,11.6-23.5
		c7.2-7.3,14.4-9.3,16.4-20.4C81.6,24.3,76.3,17.5,68,16.1z"/>
</g>
</svg>
